<?xml version="1.0" standalone="no"?>
<!DOCTYPE svg PUBLIC "-//W3C//DTD SVG 20010904//EN"
 "http://www.w3.org/TR/2001/REC-SVG-20010904/DTD/svg10.dtd">
<svg version="1.0" xmlns="http://www.w3.org/2000/svg"
 width="512.000000pt" height="512.000000pt" viewBox="0 0 512.000000 512.000000"
 preserveAspectRatio="xMidYMid meet">
<metadata>
Created by potrace 1.11, written by Peter Selinger 2001-2013
</metadata>
<g transform="translate(0.000000,512.000000) scale(0.100000,-0.100000)"
fill="#000000" stroke="none">
<path d="M558 4474 c-90 -23 -166 -83 -210 -166 l-23 -43 0 -1700 c0 -1643 1
-1701 19 -1735 38 -72 86 -119 153 -152 l67 -33 1966 0 c1416 -1 1979 2 2015
10 123 28 213 117 240 239 16 75 13 3304 -3 3363 -27 94 -121 188 -215 215
-58 16 -3945 19 -4009 2z m1197 -1109 c261 -261 475 -477 475 -480 0 -6 -949
-955 -955 -955 -3 0 -75 70 -161 156 -136 136 -154 157 -142 172 7 9 149 152
316 318 166 166 302 305 302 308 0 4 -142 148 -315 321 -173 173 -315 317
-315 320 0 5 310 315 316 315 2 0 218 -214 479 -475z m1755 -1124 c4 -1 5
-293 1 -311 -2 -8 -1265 -6 -1271 2 -4 5 -5 291 -1 308 1 4 1254 5 1271 1z"/>
</g>
</svg>
